<?xml version="1.0" standalone="no"?>
<!DOCTYPE svg PUBLIC "-//W3C//DTD SVG 20010904//EN"
 "http://www.w3.org/TR/2001/REC-SVG-20010904/DTD/svg10.dtd">
<svg version="1.0" xmlns="http://www.w3.org/2000/svg"
 width="172.000000pt" height="172.000000pt" viewBox="0 0 172.000000 172.000000"
 preserveAspectRatio="xMidYMid meet">
<metadata>
Created by potrace 1.14, written by Peter Selinger 2001-2017
</metadata>
<g transform="translate(0.000000,172.000000) scale(0.100000,-0.100000)"
fill="#000000" stroke="none">
<path d="M374 1475 c-4 -9 -1 -28 6 -44 17 -42 18 -385 1 -486 -30 -185 -118
-402 -207 -510 -25 -31 -43 -59 -41 -62 11 -10 98 115 138 197 107 220 133
339 133 622 0 114 2 205 4 203 3 -2 48 -63 101 -134 109 -147 261 -394 261
-423 0 -11 -12 -34 -26 -51 -17 -20 -24 -37 -20 -53 6 -21 3 -22 -33 -17 -49
7 -108 -12 -122 -39 -17 -32 -4 -109 30 -175 32 -63 111 -150 149 -164 55 -21
119 -3 174 48 25 24 28 24 55 10 15 -9 54 -19 86 -22 56 -6 58 -8 91 -59 42
-65 89 -96 146 -96 85 0 140 49 140 124 0 32 5 39 53 69 66 42 150 136 182
202 31 64 48 190 36 270 -10 65 -45 167 -70 203 -22 31 -149 116 -208 138 -26
10 -82 38 -123 63 -161 95 -231 112 -296 72 l-32 -19 -23 24 c-49 53 -136 18
-204 -81 -31 -44 -37 -61 -35 -97 2 -23 2 -60 1 -82 l-1 -38 -58 88 c-68 104
-217 303 -240 322 -21 16 -41 15 -48 -3z m571 -130 c34 -33 32 -55 -2 -23 -16
14 -37 30 -48 36 -19 11 -19 11 3 12 13 0 34 -11 47 -25z m-22 -27 c31 -22 31
-20 15 -90 -14 -62 -20 -68 -72 -68 -32 0 -37 3 -31 18 14 35 17 89 5 97 -17
11 -62 -26 -77 -64 -13 -31 -13 -32 17 -43 17 -5 29 -12 27 -15 -3 -2 -22 3
-43 13 -22 9 -34 18 -28 20 6 3 9 15 7 27 -9 48 88 144 131 131 12 -4 33 -15
49 -26z m333 -26 c50 -28 137 -73 193 -102 126 -63 191 -119 191 -164 0 -53
-40 -117 -97 -157 -44 -30 -69 -39 -157 -54 -91 -16 -118 -16 -217 -6 -136 14
-211 28 -261 48 -46 18 -51 35 -7 23 77 -22 257 -42 327 -36 170 16 282 98
282 209 0 31 -45 67 -85 67 -27 0 -45 -9 -79 -40 -24 -22 -61 -46 -82 -54 -71
-24 -186 -39 -264 -32 -115 9 -249 51 -261 82 -10 25 -10 27 0 42 6 11 20 7
64 -14 32 -16 57 -34 57 -41 0 -21 14 -15 50 22 19 19 38 35 43 35 4 0 23 -11
41 -25 46 -35 145 -59 193 -46 51 14 83 38 83 63 0 18 -3 17 -29 -11 -16 -17
-38 -31 -49 -31 -11 0 -29 -3 -39 -7 -10 -4 -2 7 16 24 33 29 35 33 33 93 -2
76 -23 117 -74 145 -32 17 -42 18 -80 8 -48 -13 -64 -9 -27 7 13 5 51 8 84 6
50 -3 76 -12 151 -54z m-115 8 c87 -63 29 -200 -85 -200 -49 0 -102 38 -111
79 -8 38 23 100 62 123 39 24 98 23 134 -2z m-341 -95 c0 -8 -4 -15 -10 -15
-5 0 -10 7 -10 15 0 8 5 15 10 15 6 0 10 -7 10 -15z m376 -84 c-17 -32 -58
-46 -112 -38 -22 3 -18 4 15 6 36 1 49 7 75 35 37 40 43 39 22 -3z m-329 23
c-3 -3 -12 -4 -19 -1 -8 3 -5 6 6 6 11 1 17 -2 13 -5z m70 -19 c-32 -28 -60
-31 -97 -10 -23 13 -22 14 28 8 44 -5 52 -3 52 11 0 10 8 16 23 16 21 -1 21
-1 -6 -25z m562 -53 c16 -30 -7 -98 -45 -132 -77 -67 -269 -88 -464 -50 -63
12 -123 27 -132 32 -39 20 -14 24 60 10 43 -8 141 -15 222 -16 129 -1 150 1
191 20 53 25 129 90 129 110 0 21 -16 17 -33 -10 -45 -68 -169 -102 -340 -93
-197 10 -297 36 -297 77 0 13 17 13 25 0 3 -5 38 -19 76 -31 61 -18 87 -21
197 -16 155 6 219 24 276 77 34 33 48 40 83 40 31 0 45 -5 52 -18z m-596 -222
c6 0 4 -7 -5 -16 -18 -18 -38 -11 -38 13 0 10 6 13 16 9 9 -3 21 -6 27 -6z
m-34 -64 c10 -11 8 -16 -8 -21 -11 -3 -22 -19 -26 -36 -6 -25 -10 -29 -28 -23
-47 14 -55 43 -25 82 14 16 73 15 87 -2z m157 -60 c35 -35 44 -72 22 -94 -7
-7 -35 -12 -64 -12 -67 0 -118 32 -122 77 -4 40 27 63 86 63 37 0 50 -6 78
-34z m-256 -47 c83 -50 147 -139 156 -215 5 -43 3 -52 -19 -72 l-24 -23 -6 54
c-10 100 -84 204 -180 252 l-51 25 45 0 c27 0 57 -8 79 -21z m74 -15 c4 -10 1
-14 -6 -12 -15 5 -23 28 -10 28 5 0 13 -7 16 -16z m-180 -5 c79 -22 177 -142
192 -237 5 -33 2 -44 -15 -61 -26 -26 -47 -22 -105 18 -70 47 -136 166 -136
245 0 49 4 52 64 35z m226 -44 l25 -30 -27 24 c-16 14 -28 29 -28 34 0 6 1 8
3 6 1 -2 13 -17 27 -34z m455 -65 c47 -46 89 -116 99 -166 8 -38 -14 -98 -41
-112 -16 -9 -18 -5 -20 37 -4 103 -74 234 -144 270 l-44 23 53 -5 c47 -4 59
-10 97 -47z m-91 -19 c66 -62 121 -208 101 -270 -8 -26 -61 -29 -105 -6 -55
29 -110 155 -110 257 0 78 43 86 114 19z"/>
<path d="M987 1242 c-10 -10 -17 -35 -17 -55 0 -40 27 -67 69 -67 21 0 23 3
18 33 -7 44 -34 107 -45 107 -5 0 -16 -8 -25 -18z m31 -76 c3 -12 -1 -17 -10
-14 -7 3 -15 13 -16 22 -3 12 1 17 10 14 7 -3 15 -13 16 -22z"/>
<path d="M33 304 c-39 -17 22 -78 66 -67 29 7 63 41 58 57 -4 11 -103 19 -124
10z"/>
</g>
</svg>
